<svg width="47" height="49" viewBox="0 0 47 49" fill="none" xmlns="http://www.w3.org/2000/svg">
<path d="M46.5 24.5C46.5 37.7747 36.1831 48.5 23.5 48.5C10.8169 48.5 0.5 37.7747 0.5 24.5C0.5 11.2253 10.8169 0.5 23.5 0.5C36.1831 0.5 46.5 11.2253 46.5 24.5Z" stroke="#E3633F"/>
<line y1="24.5" x2="21" y2="24.5" stroke="#E3633F" stroke-width="3"/>
<line x1="26" y1="24.5" x2="47" y2="24.5" stroke="#E3633F" stroke-width="3"/>
<line x1="27" y1="48" x2="27" y2="1" stroke="#E3633F" stroke-width="2"/>
<line x1="20" y1="48" x2="20" y2="1" stroke="#E3633F" stroke-width="2"/>
<line x1="8" y1="8.5" x2="21" y2="8.5" stroke="#E3633F"/>
<line x1="26" y1="8.5" x2="39" y2="8.5" stroke="#E3633F"/>
<line x1="8" y1="40.5" x2="21" y2="40.5" stroke="#E3633F"/>
<line x1="26" y1="40.5" x2="39" y2="40.5" stroke="#E3633F"/>
<line x1="8.5" y1="8" x2="8.5" y2="19" stroke="#E3633F"/>
<line x1="8.5" y1="29" x2="8.5" y2="41" stroke="#E3633F"/>
<line x1="38.5" y1="8" x2="38.5" y2="20" stroke="#E3633F"/>
<line x1="38.5" y1="30" x2="38.5" y2="41" stroke="#E3633F"/>
<line x1="17" y1="29.5" x2="8" y2="29.5" stroke="#E3633F"/>
<line x1="39" y1="29.5" x2="30" y2="29.5" stroke="#E3633F"/>
<line x1="17" y1="19.5" x2="8" y2="19.5" stroke="#E3633F"/>
<line x1="39" y1="19.5" x2="30" y2="19.5" stroke="#E3633F"/>
<line x1="16.5" y1="19" x2="16.5" y2="13" stroke="#E3633F"/>
<line x1="30.5" y1="19" x2="30.5" y2="13" stroke="#E3633F"/>
<line x1="17" y1="13.5" x2="13" y2="13.5" stroke="#E3633F"/>
<line x1="31" y1="13.5" x2="34" y2="13.5" stroke="#E3633F"/>
<line x1="16.5" y1="30" x2="16.5" y2="36" stroke="#E3633F"/>
<line x1="30.5" y1="30" x2="30.5" y2="36" stroke="#E3633F"/>
<line x1="31" y1="35.5" x2="34" y2="35.5" stroke="#E3633F"/>
<line x1="17" y1="35.5" x2="14" y2="35.5" stroke="#E3633F"/>
<circle cx="12.5" cy="13.5" r="1.5" fill="#E3633F"/>
<circle cx="34.5" cy="13.5" r="1.5" fill="#E3633F"/>
<circle cx="13.5" cy="35.5" r="1.5" fill="#E3633F"/>
<circle cx="34.5" cy="35.5" r="1.5" fill="#E3633F"/>
</svg>
